<?xml version="1.0" encoding="utf-8" standalone="no"?>
<!DOCTYPE svg PUBLIC "-//W3C//DTD SVG 1.1//EN"
  "http://www.w3.org/Graphics/SVG/1.1/DTD/svg11.dtd">
<svg xmlns:xlink="http://www.w3.org/1999/xlink" width="397.6075pt" height="297.190125pt" viewBox="0 0 397.6075 297.190125" xmlns="http://www.w3.org/2000/svg" version="1.1">
 <metadata>
  <rdf:RDF xmlns:dc="http://purl.org/dc/elements/1.1/" xmlns:cc="http://creativecommons.org/ns#" xmlns:rdf="http://www.w3.org/1999/02/22-rdf-syntax-ns#">
   <cc:Work>
    <dc:type rdf:resource="http://purl.org/dc/dcmitype/StillImage"/>
    <dc:date>2022-09-04T21:32:47.739924</dc:date>
    <dc:format>image/svg+xml</dc:format>
    <dc:creator>
     <cc:Agent>
      <dc:title>Matplotlib v3.5.2, https://matplotlib.org/</dc:title>
     </cc:Agent>
    </dc:creator>
   </cc:Work>
  </rdf:RDF>
 </metadata>
 <defs>
  <style type="text/css">*{stroke-linejoin: round; stroke-linecap: butt}</style>
 </defs>
 <g id="figure_1">
  <g id="patch_1">
   <path d="M 0 297.190125 
L 397.6075 297.190125 
L 397.6075 0 
L 0 0 
z
" style="fill: #ffffff"/>
  </g>
  <g id="axes_1">
   <g id="patch_2">
    <path d="M 33.2875 273.312 
L 390.4075 273.312 
L 390.4075 7.2 
L 33.2875 7.2 
z
" style="fill: #ffffff"/>
   </g>
   <g id="PathCollection_1">
    <defs>
     <path id="m1f8478a1c1" d="M 0 3 
C 0.795609 3 1.55874 2.683901 2.12132 2.12132 
C 2.683901 1.55874 3 0.795609 3 0 
C 3 -0.795609 2.683901 -1.55874 2.12132 -2.12132 
C 1.55874 -2.683901 0.795609 -3 0 -3 
C -0.795609 -3 -1.55874 -2.683901 -2.12132 -2.12132 
C -2.683901 -1.55874 -3 -0.795609 -3 0 
C -3 0.795609 -2.683901 1.55874 -2.12132 2.12132 
C -1.55874 2.683901 -0.795609 3 0 3 
z
" style="stroke: #1f77b4"/>
    </defs>
    <g clip-path="url(#p3559a1d3ad)">
     <use xlink:href="#m1f8478a1c1" x="49.520227" y="260.061509" style="fill: #1f77b4; stroke: #1f77b4"/>
     <use xlink:href="#m1f8478a1c1" x="49.520227" y="260.061509" style="fill: #1f77b4; stroke: #1f77b4"/>
     <use xlink:href="#m1f8478a1c1" x="49.520227" y="260.061509" style="fill: #1f77b4; stroke: #1f77b4"/>
     <use xlink:href="#m1f8478a1c1" x="49.520227" y="260.061509" style="fill: #1f77b4; stroke: #1f77b4"/>
     <use xlink:href="#m1f8478a1c1" x="49.520227" y="260.061509" style="fill: #1f77b4; stroke: #1f77b4"/>
     <use xlink:href="#m1f8478a1c1" x="49.520227" y="260.061509" style="fill: #1f77b4; stroke: #1f77b4"/>
     <use xlink:href="#m1f8478a1c1" x="49.520227" y="260.061509" style="fill: #1f77b4; stroke: #1f77b4"/>
     <use xlink:href="#m1f8478a1c1" x="49.520227" y="260.061509" style="fill: #1f77b4; stroke: #1f77b4"/>
     <use xlink:href="#m1f8478a1c1" x="49.520227" y="260.061509" style="fill: #1f77b4; stroke: #1f77b4"/>
     <use xlink:href="#m1f8478a1c1" x="49.520227" y="260.061509" style="fill: #1f77b4; stroke: #1f77b4"/>
     <use xlink:href="#m1f8478a1c1" x="49.520227" y="260.061509" style="fill: #1f77b4; stroke: #1f77b4"/>
     <use xlink:href="#m1f8478a1c1" x="49.520227" y="260.061509" style="fill: #1f77b4; stroke: #1f77b4"/>
     <use xlink:href="#m1f8478a1c1" x="49.520227" y="260.061509" style="fill: #1f77b4; stroke: #1f77b4"/>
     <use xlink:href="#m1f8478a1c1" x="49.520227" y="260.061509" style="fill: #1f77b4; stroke: #1f77b4"/>
     <use xlink:href="#m1f8478a1c1" x="49.520227" y="259.880812" style="fill: #1f77b4; stroke: #1f77b4"/>
     <use xlink:href="#m1f8478a1c1" x="49.520227" y="259.876178" style="fill: #1f77b4; stroke: #1f77b4"/>
     <use xlink:href="#m1f8478a1c1" x="49.520227" y="259.826393" style="fill: #1f77b4; stroke: #1f77b4"/>
     <use xlink:href="#m1f8478a1c1" x="49.520227" y="259.633475" style="fill: #1f77b4; stroke: #1f77b4"/>
     <use xlink:href="#m1f8478a1c1" x="49.520227" y="259.447303" style="fill: #1f77b4; stroke: #1f77b4"/>
     <use xlink:href="#m1f8478a1c1" x="49.520227" y="259.257114" style="fill: #1f77b4; stroke: #1f77b4"/>
     <use xlink:href="#m1f8478a1c1" x="49.520227" y="259.070433" style="fill: #1f77b4; stroke: #1f77b4"/>
     <use xlink:href="#m1f8478a1c1" x="49.520227" y="258.907018" style="fill: #1f77b4; stroke: #1f77b4"/>
     <use xlink:href="#m1f8478a1c1" x="49.520227" y="258.907018" style="fill: #1f77b4; stroke: #1f77b4"/>
     <use xlink:href="#m1f8478a1c1" x="49.520227" y="258.907018" style="fill: #1f77b4; stroke: #1f77b4"/>
     <use xlink:href="#m1f8478a1c1" x="49.520227" y="258.766989" style="fill: #1f77b4; stroke: #1f77b4"/>
     <use xlink:href="#m1f8478a1c1" x="49.520227" y="258.272416" style="fill: #1f77b4; stroke: #1f77b4"/>
     <use xlink:href="#m1f8478a1c1" x="49.520227" y="258.200658" style="fill: #1f77b4; stroke: #1f77b4"/>
     <use xlink:href="#m1f8478a1c1" x="49.520227" y="257.822733" style="fill: #1f77b4; stroke: #1f77b4"/>
     <use xlink:href="#m1f8478a1c1" x="49.520227" y="257.793718" style="fill: #1f77b4; stroke: #1f77b4"/>
     <use xlink:href="#m1f8478a1c1" x="49.520227" y="257.752527" style="fill: #1f77b4; stroke: #1f77b4"/>
     <use xlink:href="#m1f8478a1c1" x="49.520227" y="257.752527" style="fill: #1f77b4; stroke: #1f77b4"/>
     <use xlink:href="#m1f8478a1c1" x="49.520227" y="257.752527" style="fill: #1f77b4; stroke: #1f77b4"/>
     <use xlink:href="#m1f8478a1c1" x="49.520227" y="257.729872" style="fill: #1f77b4; stroke: #1f77b4"/>
     <use xlink:href="#m1f8478a1c1" x="49.520227" y="257.660903" style="fill: #1f77b4; stroke: #1f77b4"/>
     <use xlink:href="#m1f8478a1c1" x="49.520227" y="257.569234" style="fill: #1f77b4; stroke: #1f77b4"/>
     <use xlink:href="#m1f8478a1c1" x="49.520227" y="257.542095" style="fill: #1f77b4; stroke: #1f77b4"/>
     <use xlink:href="#m1f8478a1c1" x="49.520227" y="257.476578" style="fill: #1f77b4; stroke: #1f77b4"/>
     <use xlink:href="#m1f8478a1c1" x="49.520227" y="256.598037" style="fill: #1f77b4; stroke: #1f77b4"/>
     <use xlink:href="#m1f8478a1c1" x="49.520227" y="256.598037" style="fill: #1f77b4; stroke: #1f77b4"/>
     <use xlink:href="#m1f8478a1c1" x="49.520227" y="256.598037" style="fill: #1f77b4; stroke: #1f77b4"/>
     <use xlink:href="#m1f8478a1c1" x="49.520227" y="256.587788" style="fill: #1f77b4; stroke: #1f77b4"/>
     <use xlink:href="#m1f8478a1c1" x="49.520227" y="256.454808" style="fill: #1f77b4; stroke: #1f77b4"/>
     <use xlink:href="#m1f8478a1c1" x="49.520227" y="256.085026" style="fill: #1f77b4; stroke: #1f77b4"/>
     <use xlink:href="#m1f8478a1c1" x="49.520227" y="255.972826" style="fill: #1f77b4; stroke: #1f77b4"/>
     <use xlink:href="#m1f8478a1c1" x="49.520227" y="255.968997" style="fill: #1f77b4; stroke: #1f77b4"/>
     <use xlink:href="#m1f8478a1c1" x="49.520227" y="255.963847" style="fill: #1f77b4; stroke: #1f77b4"/>
     <use xlink:href="#m1f8478a1c1" x="49.520227" y="255.954292" style="fill: #1f77b4; stroke: #1f77b4"/>
     <use xlink:href="#m1f8478a1c1" x="49.520227" y="255.831561" style="fill: #1f77b4; stroke: #1f77b4"/>
     <use xlink:href="#m1f8478a1c1" x="49.520227" y="255.828004" style="fill: #1f77b4; stroke: #1f77b4"/>
     <use xlink:href="#m1f8478a1c1" x="49.520227" y="255.723716" style="fill: #1f77b4; stroke: #1f77b4"/>
     <use xlink:href="#m1f8478a1c1" x="49.520227" y="255.546373" style="fill: #1f77b4; stroke: #1f77b4"/>
     <use xlink:href="#m1f8478a1c1" x="49.520227" y="255.443546" style="fill: #1f77b4; stroke: #1f77b4"/>
     <use xlink:href="#m1f8478a1c1" x="49.520227" y="255.353869" style="fill: #1f77b4; stroke: #1f77b4"/>
     <use xlink:href="#m1f8478a1c1" x="49.520227" y="255.202072" style="fill: #1f77b4; stroke: #1f77b4"/>
     <use xlink:href="#m1f8478a1c1" x="49.520227" y="254.920691" style="fill: #1f77b4; stroke: #1f77b4"/>
     <use xlink:href="#m1f8478a1c1" x="49.520227" y="254.835717" style="fill: #1f77b4; stroke: #1f77b4"/>
     <use xlink:href="#m1f8478a1c1" x="49.520227" y="254.516911" style="fill: #1f77b4; stroke: #1f77b4"/>
     <use xlink:href="#m1f8478a1c1" x="49.520227" y="254.374917" style="fill: #1f77b4; stroke: #1f77b4"/>
     <use xlink:href="#m1f8478a1c1" x="49.520227" y="254.331987" style="fill: #1f77b4; stroke: #1f77b4"/>
     <use xlink:href="#m1f8478a1c1" x="49.520227" y="254.302692" style="fill: #1f77b4; stroke: #1f77b4"/>
     <use xlink:href="#m1f8478a1c1" x="49.520227" y="254.289055" style="fill: #1f77b4; stroke: #1f77b4"/>
     <use xlink:href="#m1f8478a1c1" x="49.520227" y="254.286834" style="fill: #1f77b4; stroke: #1f77b4"/>
     <use xlink:href="#m1f8478a1c1" x="49.520227" y="253.924201" style="fill: #1f77b4; stroke: #1f77b4"/>
     <use xlink:href="#m1f8478a1c1" x="49.520227" y="253.903172" style="fill: #1f77b4; stroke: #1f77b4"/>
     <use xlink:href="#m1f8478a1c1" x="49.520227" y="253.767293" style="fill: #1f77b4; stroke: #1f77b4"/>
     <use xlink:href="#m1f8478a1c1" x="49.520227" y="253.663927" style="fill: #1f77b4; stroke: #1f77b4"/>
     <use xlink:href="#m1f8478a1c1" x="49.520227" y="253.647046" style="fill: #1f77b4; stroke: #1f77b4"/>
     <use xlink:href="#m1f8478a1c1" x="49.520227" y="253.578989" style="fill: #1f77b4; stroke: #1f77b4"/>
     <use xlink:href="#m1f8478a1c1" x="49.520227" y="253.562939" style="fill: #1f77b4; stroke: #1f77b4"/>
     <use xlink:href="#m1f8478a1c1" x="49.520227" y="253.363355" style="fill: #1f77b4; stroke: #1f77b4"/>
     <use xlink:href="#m1f8478a1c1" x="49.520227" y="253.256379" style="fill: #1f77b4; stroke: #1f77b4"/>
     <use xlink:href="#m1f8478a1c1" x="49.520227" y="253.134564" style="fill: #1f77b4; stroke: #1f77b4"/>
     <use xlink:href="#m1f8478a1c1" x="49.520227" y="253.027533" style="fill: #1f77b4; stroke: #1f77b4"/>
     <use xlink:href="#m1f8478a1c1" x="49.520227" y="252.602848" style="fill: #1f77b4; stroke: #1f77b4"/>
     <use xlink:href="#m1f8478a1c1" x="49.520227" y="251.599647" style="fill: #1f77b4; stroke: #1f77b4"/>
     <use xlink:href="#m1f8478a1c1" x="49.520227" y="251.148082" style="fill: #1f77b4; stroke: #1f77b4"/>
     <use xlink:href="#m1f8478a1c1" x="49.520227" y="249.747718" style="fill: #1f77b4; stroke: #1f77b4"/>
     <use xlink:href="#m1f8478a1c1" x="49.520227" y="249.334454" style="fill: #1f77b4; stroke: #1f77b4"/>
     <use xlink:href="#m1f8478a1c1" x="49.520227" y="249.008868" style="fill: #1f77b4; stroke: #1f77b4"/>
     <use xlink:href="#m1f8478a1c1" x="49.520227" y="248.771721" style="fill: #1f77b4; stroke: #1f77b4"/>
     <use xlink:href="#m1f8478a1c1" x="49.520227" y="235.055705" style="fill: #1f77b4; stroke: #1f77b4"/>
     <use xlink:href="#m1f8478a1c1" x="49.520227" y="218.836382" style="fill: #1f77b4; stroke: #1f77b4"/>
     <use xlink:href="#m1f8478a1c1" x="49.520227" y="211.87612" style="fill: #1f77b4; stroke: #1f77b4"/>
     <use xlink:href="#m1f8478a1c1" x="49.520227" y="19.296" style="fill: #1f77b4; stroke: #1f77b4"/>
    </g>
   </g>
   <g id="PathCollection_2">
    <defs>
     <path id="m0d43e90fc2" d="M 0 3 
C 0.795609 3 1.55874 2.683901 2.12132 2.12132 
C 2.683901 1.55874 3 0.795609 3 0 
C 3 -0.795609 2.683901 -1.55874 2.12132 -2.12132 
C 1.55874 -2.683901 0.795609 -3 0 -3 
C -0.795609 -3 -1.55874 -2.683901 -2.12132 -2.12132 
C -2.683901 -1.55874 -3 -0.795609 -3 0 
C -3 0.795609 -2.683901 1.55874 -2.12132 2.12132 
C -1.55874 2.683901 -0.795609 3 0 3 
z
" style="stroke: #ff7f0e"/>
    </defs>
    <g clip-path="url(#p3559a1d3ad)">
     <use xlink:href="#m0d43e90fc2" x="371.134955" y="211.037729" style="fill: #ff7f0e; stroke: #ff7f0e"/>
     <use xlink:href="#m0d43e90fc2" x="218.777929" y="235.030243" style="fill: #ff7f0e; stroke: #ff7f0e"/>
     <use xlink:href="#m0d43e90fc2" x="128.580102" y="248.194972" style="fill: #ff7f0e; stroke: #ff7f0e"/>
     <use xlink:href="#m0d43e90fc2" x="128.215063" y="248.650361" style="fill: #ff7f0e; stroke: #ff7f0e"/>
     <use xlink:href="#m0d43e90fc2" x="127.47519" y="248.056991" style="fill: #ff7f0e; stroke: #ff7f0e"/>
     <use xlink:href="#m0d43e90fc2" x="127.316726" y="247.18003" style="fill: #ff7f0e; stroke: #ff7f0e"/>
     <use xlink:href="#m0d43e90fc2" x="123.993327" y="245.562405" style="fill: #ff7f0e; stroke: #ff7f0e"/>
     <use xlink:href="#m0d43e90fc2" x="114.343113" y="250.254197" style="fill: #ff7f0e; stroke: #ff7f0e"/>
     <use xlink:href="#m0d43e90fc2" x="104.803101" y="252.567456" style="fill: #ff7f0e; stroke: #ff7f0e"/>
     <use xlink:href="#m0d43e90fc2" x="99.627309" y="252.273406" style="fill: #ff7f0e; stroke: #ff7f0e"/>
     <use xlink:href="#m0d43e90fc2" x="96.420391" y="252.021759" style="fill: #ff7f0e; stroke: #ff7f0e"/>
     <use xlink:href="#m0d43e90fc2" x="94.422107" y="252.775335" style="fill: #ff7f0e; stroke: #ff7f0e"/>
     <use xlink:href="#m0d43e90fc2" x="94.337718" y="253.043292" style="fill: #ff7f0e; stroke: #ff7f0e"/>
     <use xlink:href="#m0d43e90fc2" x="89.752386" y="253.764891" style="fill: #ff7f0e; stroke: #ff7f0e"/>
     <use xlink:href="#m0d43e90fc2" x="89.705648" y="253.072231" style="fill: #ff7f0e; stroke: #ff7f0e"/>
     <use xlink:href="#m0d43e90fc2" x="79.536993" y="255.909161" style="fill: #ff7f0e; stroke: #ff7f0e"/>
    </g>
   </g>
   <g id="PathCollection_3">
    <defs>
     <path id="ma1393d698e" d="M 0 3 
C 0.795609 3 1.55874 2.683901 2.12132 2.12132 
C 2.683901 1.55874 3 0.795609 3 0 
C 3 -0.795609 2.683901 -1.55874 2.12132 -2.12132 
C 1.55874 -2.683901 0.795609 -3 0 -3 
C -0.795609 -3 -1.55874 -2.683901 -2.12132 -2.12132 
C -2.683901 -1.55874 -3 -0.795609 -3 0 
C -3 0.795609 -2.683901 1.55874 -2.12132 2.12132 
C -1.55874 2.683901 -0.795609 3 0 3 
z
" style="stroke: #2ca02c"/>
    </defs>
    <g clip-path="url(#p3559a1d3ad)">
     <use xlink:href="#ma1393d698e" x="151.84269" y="244.679048" style="fill: #2ca02c; stroke: #2ca02c"/>
    </g>
   </g>
   <g id="matplotlib.axis_1">
    <g id="xtick_1">
     <g id="line2d_1">
      <defs>
       <path id="m391fd58313" d="M 0 0 
L 0 3.5 
" style="stroke: #000000; stroke-width: 0.8"/>
      </defs>
      <g>
       <use xlink:href="#m391fd58313" x="49.520227" y="273.312" style="stroke: #000000; stroke-width: 0.8"/>
      </g>
     </g>
     <g id="text_1">
      <!-- 0 -->
      <g transform="translate(46.338977 287.910437)scale(0.1 -0.1)">
       <defs>
        <path id="DejaVuSans-30" d="M 2034 4250 
Q 1547 4250 1301 3770 
Q 1056 3291 1056 2328 
Q 1056 1369 1301 889 
Q 1547 409 2034 409 
Q 2525 409 2770 889 
Q 3016 1369 3016 2328 
Q 3016 3291 2770 3770 
Q 2525 4250 2034 4250 
z
M 2034 4750 
Q 2819 4750 3233 4129 
Q 3647 3509 3647 2328 
Q 3647 1150 3233 529 
Q 2819 -91 2034 -91 
Q 1250 -91 836 529 
Q 422 1150 422 2328 
Q 422 3509 836 4129 
Q 1250 4750 2034 4750 
z
" transform="scale(0.015625)"/>
       </defs>
       <use xlink:href="#DejaVuSans-30"/>
      </g>
     </g>
    </g>
    <g id="xtick_2">
     <g id="line2d_2">
      <g>
       <use xlink:href="#m391fd58313" x="124.216045" y="273.312" style="stroke: #000000; stroke-width: 0.8"/>
      </g>
     </g>
     <g id="text_2">
      <!-- 10 -->
      <g transform="translate(117.853545 287.910437)scale(0.1 -0.1)">
       <defs>
        <path id="DejaVuSans-31" d="M 794 531 
L 1825 531 
L 1825 4091 
L 703 3866 
L 703 4441 
L 1819 4666 
L 2450 4666 
L 2450 531 
L 3481 531 
L 3481 0 
L 794 0 
L 794 531 
z
" transform="scale(0.015625)"/>
       </defs>
       <use xlink:href="#DejaVuSans-31"/>
       <use xlink:href="#DejaVuSans-30" x="63.623047"/>
      </g>
     </g>
    </g>
    <g id="xtick_3">
     <g id="line2d_3">
      <g>
       <use xlink:href="#m391fd58313" x="198.911863" y="273.312" style="stroke: #000000; stroke-width: 0.8"/>
      </g>
     </g>
     <g id="text_3">
      <!-- 20 -->
      <g transform="translate(192.549363 287.910437)scale(0.1 -0.1)">
       <defs>
        <path id="DejaVuSans-32" d="M 1228 531 
L 3431 531 
L 3431 0 
L 469 0 
L 469 531 
Q 828 903 1448 1529 
Q 2069 2156 2228 2338 
Q 2531 2678 2651 2914 
Q 2772 3150 2772 3378 
Q 2772 3750 2511 3984 
Q 2250 4219 1831 4219 
Q 1534 4219 1204 4116 
Q 875 4013 500 3803 
L 500 4441 
Q 881 4594 1212 4672 
Q 1544 4750 1819 4750 
Q 2544 4750 2975 4387 
Q 3406 4025 3406 3419 
Q 3406 3131 3298 2873 
Q 3191 2616 2906 2266 
Q 2828 2175 2409 1742 
Q 1991 1309 1228 531 
z
" transform="scale(0.015625)"/>
       </defs>
       <use xlink:href="#DejaVuSans-32"/>
       <use xlink:href="#DejaVuSans-30" x="63.623047"/>
      </g>
     </g>
    </g>
    <g id="xtick_4">
     <g id="line2d_4">
      <g>
       <use xlink:href="#m391fd58313" x="273.607681" y="273.312" style="stroke: #000000; stroke-width: 0.8"/>
      </g>
     </g>
     <g id="text_4">
      <!-- 30 -->
      <g transform="translate(267.245181 287.910437)scale(0.1 -0.1)">
       <defs>
        <path id="DejaVuSans-33" d="M 2597 2516 
Q 3050 2419 3304 2112 
Q 3559 1806 3559 1356 
Q 3559 666 3084 287 
Q 2609 -91 1734 -91 
Q 1441 -91 1130 -33 
Q 819 25 488 141 
L 488 750 
Q 750 597 1062 519 
Q 1375 441 1716 441 
Q 2309 441 2620 675 
Q 2931 909 2931 1356 
Q 2931 1769 2642 2001 
Q 2353 2234 1838 2234 
L 1294 2234 
L 1294 2753 
L 1863 2753 
Q 2328 2753 2575 2939 
Q 2822 3125 2822 3475 
Q 2822 3834 2567 4026 
Q 2313 4219 1838 4219 
Q 1578 4219 1281 4162 
Q 984 4106 628 3988 
L 628 4550 
Q 988 4650 1302 4700 
Q 1616 4750 1894 4750 
Q 2613 4750 3031 4423 
Q 3450 4097 3450 3541 
Q 3450 3153 3228 2886 
Q 3006 2619 2597 2516 
z
" transform="scale(0.015625)"/>
       </defs>
       <use xlink:href="#DejaVuSans-33"/>
       <use xlink:href="#DejaVuSans-30" x="63.623047"/>
      </g>
     </g>
    </g>
    <g id="xtick_5">
     <g id="line2d_5">
      <g>
       <use xlink:href="#m391fd58313" x="348.303499" y="273.312" style="stroke: #000000; stroke-width: 0.8"/>
      </g>
     </g>
     <g id="text_5">
      <!-- 40 -->
      <g transform="translate(341.940999 287.910437)scale(0.1 -0.1)">
       <defs>
        <path id="DejaVuSans-34" d="M 2419 4116 
L 825 1625 
L 2419 1625 
L 2419 4116 
z
M 2253 4666 
L 3047 4666 
L 3047 1625 
L 3713 1625 
L 3713 1100 
L 3047 1100 
L 3047 0 
L 2419 0 
L 2419 1100 
L 313 1100 
L 313 1709 
L 2253 4666 
z
" transform="scale(0.015625)"/>
       </defs>
       <use xlink:href="#DejaVuSans-34"/>
       <use xlink:href="#DejaVuSans-30" x="63.623047"/>
      </g>
     </g>
    </g>
   </g>
   <g id="matplotlib.axis_2">
    <g id="ytick_1">
     <g id="line2d_6">
      <defs>
       <path id="m4ec9102d67" d="M 0 0 
L -3.5 0 
" style="stroke: #000000; stroke-width: 0.8"/>
      </defs>
      <g>
       <use xlink:href="#m4ec9102d67" x="33.2875" y="261.216" style="stroke: #000000; stroke-width: 0.8"/>
      </g>
     </g>
     <g id="text_6">
      <!-- 0 -->
      <g transform="translate(19.925 265.015219)scale(0.1 -0.1)">
       <use xlink:href="#DejaVuSans-30"/>
      </g>
     </g>
    </g>
    <g id="ytick_2">
     <g id="line2d_7">
      <g>
       <use xlink:href="#m4ec9102d67" x="33.2875" y="203.491458" style="stroke: #000000; stroke-width: 0.8"/>
      </g>
     </g>
     <g id="text_7">
      <!-- 50 -->
      <g transform="translate(13.5625 207.290677)scale(0.1 -0.1)">
       <defs>
        <path id="DejaVuSans-35" d="M 691 4666 
L 3169 4666 
L 3169 4134 
L 1269 4134 
L 1269 2991 
Q 1406 3038 1543 3061 
Q 1681 3084 1819 3084 
Q 2600 3084 3056 2656 
Q 3513 2228 3513 1497 
Q 3513 744 3044 326 
Q 2575 -91 1722 -91 
Q 1428 -91 1123 -41 
Q 819 9 494 109 
L 494 744 
Q 775 591 1075 516 
Q 1375 441 1709 441 
Q 2250 441 2565 725 
Q 2881 1009 2881 1497 
Q 2881 1984 2565 2268 
Q 2250 2553 1709 2553 
Q 1456 2553 1204 2497 
Q 953 2441 691 2322 
L 691 4666 
z
" transform="scale(0.015625)"/>
       </defs>
       <use xlink:href="#DejaVuSans-35"/>
       <use xlink:href="#DejaVuSans-30" x="63.623047"/>
      </g>
     </g>
    </g>
    <g id="ytick_3">
     <g id="line2d_8">
      <g>
       <use xlink:href="#m4ec9102d67" x="33.2875" y="145.766916" style="stroke: #000000; stroke-width: 0.8"/>
      </g>
     </g>
     <g id="text_8">
      <!-- 100 -->
      <g transform="translate(7.2 149.566135)scale(0.1 -0.1)">
       <use xlink:href="#DejaVuSans-31"/>
       <use xlink:href="#DejaVuSans-30" x="63.623047"/>
       <use xlink:href="#DejaVuSans-30" x="127.246094"/>
      </g>
     </g>
    </g>
    <g id="ytick_4">
     <g id="line2d_9">
      <g>
       <use xlink:href="#m4ec9102d67" x="33.2875" y="88.042374" style="stroke: #000000; stroke-width: 0.8"/>
      </g>
     </g>
     <g id="text_9">
      <!-- 150 -->
      <g transform="translate(7.2 91.841593)scale(0.1 -0.1)">
       <use xlink:href="#DejaVuSans-31"/>
       <use xlink:href="#DejaVuSans-35" x="63.623047"/>
       <use xlink:href="#DejaVuSans-30" x="127.246094"/>
      </g>
     </g>
    </g>
    <g id="ytick_5">
     <g id="line2d_10">
      <g>
       <use xlink:href="#m4ec9102d67" x="33.2875" y="30.317833" style="stroke: #000000; stroke-width: 0.8"/>
      </g>
     </g>
     <g id="text_10">
      <!-- 200 -->
      <g transform="translate(7.2 34.117051)scale(0.1 -0.1)">
       <use xlink:href="#DejaVuSans-32"/>
       <use xlink:href="#DejaVuSans-30" x="63.623047"/>
       <use xlink:href="#DejaVuSans-30" x="127.246094"/>
      </g>
     </g>
    </g>
   </g>
   <g id="line2d_11">
    <path d="M 49.520227 261.216 
L 374.174773 211.037729 
" clip-path="url(#p3559a1d3ad)" style="fill: none; stroke-dasharray: 5.55,2.4; stroke-dashoffset: 0; stroke: #000000; stroke-width: 1.5"/>
   </g>
   <g id="patch_3">
    <path d="M 33.2875 273.312 
L 33.2875 7.2 
" style="fill: none; stroke: #000000; stroke-width: 0.8; stroke-linejoin: miter; stroke-linecap: square"/>
   </g>
   <g id="patch_4">
    <path d="M 390.4075 273.312 
L 390.4075 7.2 
" style="fill: none; stroke: #000000; stroke-width: 0.8; stroke-linejoin: miter; stroke-linecap: square"/>
   </g>
   <g id="patch_5">
    <path d="M 33.2875 273.312 
L 390.4075 273.312 
" style="fill: none; stroke: #000000; stroke-width: 0.8; stroke-linejoin: miter; stroke-linecap: square"/>
   </g>
   <g id="patch_6">
    <path d="M 33.2875 7.2 
L 390.4075 7.2 
" style="fill: none; stroke: #000000; stroke-width: 0.8; stroke-linejoin: miter; stroke-linecap: square"/>
   </g>
   <g id="legend_1">
    <g id="patch_7">
     <path d="M 345.045 268.312 
L 383.4075 268.312 
Q 385.4075 268.312 385.4075 266.312 
L 385.4075 223.277625 
Q 385.4075 221.277625 383.4075 221.277625 
L 345.045 221.277625 
Q 343.045 221.277625 343.045 223.277625 
L 343.045 266.312 
Q 343.045 268.312 345.045 268.312 
z
" style="fill: #ffffff; opacity: 0.8; stroke: #cccccc; stroke-linejoin: miter"/>
    </g>
    <g id="PathCollection_4">
     <g>
      <use xlink:href="#m1f8478a1c1" x="357.045" y="230.251062" style="fill: #1f77b4; stroke: #1f77b4"/>
     </g>
    </g>
    <g id="text_11">
     <!-- 0 -->
     <g transform="translate(375.045 232.876062)scale(0.1 -0.1)">
      <use xlink:href="#DejaVuSans-30"/>
     </g>
    </g>
    <g id="PathCollection_5">
     <g>
      <use xlink:href="#m0d43e90fc2" x="357.045" y="244.929187" style="fill: #ff7f0e; stroke: #ff7f0e"/>
     </g>
    </g>
    <g id="text_12">
     <!-- 1 -->
     <g transform="translate(375.045 247.554187)scale(0.1 -0.1)">
      <use xlink:href="#DejaVuSans-31"/>
     </g>
    </g>
    <g id="PathCollection_6">
     <g>
      <use xlink:href="#ma1393d698e" x="357.045" y="259.607312" style="fill: #2ca02c; stroke: #2ca02c"/>
     </g>
    </g>
    <g id="text_13">
     <!-- 2 -->
     <g transform="translate(375.045 262.232312)scale(0.1 -0.1)">
      <use xlink:href="#DejaVuSans-32"/>
     </g>
    </g>
   </g>
  </g>
 </g>
 <defs>
  <clipPath id="p3559a1d3ad">
   <rect x="33.2875" y="7.2" width="357.12" height="266.112"/>
  </clipPath>
 </defs>
</svg>
